<?xml version="1.0" standalone="no"?>
<!DOCTYPE svg PUBLIC "-//W3C//DTD SVG 20010904//EN"
 "http://www.w3.org/TR/2001/REC-SVG-20010904/DTD/svg10.dtd">
<svg version="1.0" xmlns="http://www.w3.org/2000/svg"
 width="3500.000000pt" height="1134.000000pt" viewBox="0 0 3500.000000 1134.000000"
 preserveAspectRatio="xMidYMid meet">
<metadata>
Created by potrace 1.15, written by Peter Selinger 2001-2017
</metadata>
<g transform="translate(0.000000,1134.000000) scale(0.100000,-0.100000)"
fill="#fff" stroke="none">
<path d="M5585 11334 c-1149 -87 -2200 -445 -3130 -1067 -1413 -946 -2297
-2486 -2440 -4251 -17 -217 -20 -702 -5 -911 79 -1076 441 -2110 1035 -2960
673 -963 1858 -1688 3250 -1989 500 -108 961 -156 1498 -156 712 0 1408 99
2112 301 782 225 1537 598 2078 1028 42 34 77 64 77 67 0 3 -45 59 -101 125
-69 83 -104 117 -112 111 -407 -321 -866 -562 -1438 -757 -1440 -491 -3113
-548 -4258 -144 -954 337 -1761 974 -2348 1854 -411 617 -729 1413 -852 2130
-251 1471 48 2908 858 4113 219 326 570 711 901 988 873 730 1931 1108 3025
1081 498 -12 917 -88 1395 -253 402 -138 930 -404 1244 -626 626 -443 1124
-1034 1462 -1733 502 -1040 596 -2224 259 -3250 -165 -499 -436 -983 -737
-1315 -242 -267 -601 -537 -933 -703 -672 -336 -1294 -340 -1787 -11 -314 209
-475 509 -533 994 -32 269 -29 607 14 2078 23 760 41 1398 41 1417 l0 35
-1100 0 -1100 0 0 -245 0 -245 461 0 461 0 -6 -87 c-7 -103 -20 -515 -41
-1263 -30 -1110 -38 -1509 -31 -1655 40 -958 512 -1546 1371 -1704 311 -57
698 -59 1130 -5 1723 217 3266 1480 3725 3049 112 385 156 754 147 1239 -6
312 -17 439 -63 694 -222 1260 -1002 2400 -2159 3157 -583 382 -1201 637
-1865 769 -399 80 -591 98 -1065 101 -214 1 -412 1 -440 -1z"/>
<path d="M5081 9670 c-183 -26 -367 -125 -476 -257 -136 -165 -190 -378 -151
-600 49 -281 225 -489 491 -579 114 -39 314 -46 433 -16 250 64 439 249 513
504 32 113 38 300 11 406 -66 259 -252 452 -503 522 -86 23 -228 32 -318 20z"/>
<path d="M14122 7759 c-440 -28 -867 -154 -1209 -357 -643 -382 -1033 -1008
-1135 -1822 -16 -134 -16 -523 0 -660 70 -566 271 -1012 617 -1369 358 -370
828 -591 1415 -665 483 -62 1086 1 1553 160 73 25 136 49 140 53 6 6 -119 799
-149 943 l-5 26 -75 -35 c-363 -167 -882 -212 -1269 -109 -348 93 -637 329
-799 654 -119 238 -179 579 -155 888 29 390 155 683 393 919 275 274 602 386
1080 372 271 -8 518 -55 691 -131 l55 -25 9 37 c19 73 231 922 231 926 0 3
-26 14 -57 26 -235 89 -550 149 -888 170 -188 11 -261 11 -443 -1z"/>
<path d="M17640 7759 c-350 -21 -705 -92 -998 -200 -119 -43 -391 -176 -436
-213 l-30 -23 114 -379 c62 -208 117 -389 121 -401 l8 -23 52 31 c407 239 994
371 1419 318 453 -56 710 -318 710 -723 l0 -85 -42 -5 c-24 -3 -133 -7 -243
-10 -716 -20 -1334 -183 -1766 -467 -145 -96 -341 -284 -427 -411 -186 -273
-273 -597 -259 -963 11 -289 83 -513 237 -743 66 -100 190 -231 285 -304 187
-142 436 -242 700 -280 127 -18 414 -15 555 6 429 64 799 255 1028 532 l58 70
23 -150 c12 -83 29 -197 38 -253 l16 -103 563 0 564 0 -5 28 c-24 138 -28 321
-35 1622 -8 1517 -6 1480 -66 1750 -38 172 -86 309 -164 465 -229 462 -635
758 -1195 869 -221 44 -554 62 -825 45z m1000 -2890 l0 -380 -36 -107 c-88
-266 -278 -449 -566 -545 -170 -57 -395 -62 -543 -13 -194 65 -317 199 -372
406 -23 88 -23 281 0 370 72 277 308 467 702 565 195 49 458 80 713 84 l102 1
0 -381z"/>
<path d="M22890 7760 c-495 -62 -919 -398 -1104 -876 l-32 -83 -37 412 c-21
227 -37 418 -37 425 0 9 -116 12 -545 12 l-545 0 5 -37 c25 -174 28 -427 32
-2470 l4 -2163 644 0 645 0 0 1384 0 1385 26 83 c15 46 39 111 55 146 72 161
228 347 368 442 218 147 499 208 771 167 58 -9 129 -19 158 -22 l52 -7 0 585
0 585 -66 16 c-80 20 -290 28 -394 16z"/>
<path d="M26068 7759 c-169 -18 -367 -82 -513 -166 -276 -159 -504 -424 -630
-733 l-23 -54 -6 74 c-3 41 -10 185 -16 320 -5 135 -13 291 -16 348 l-6 102
-539 0 -539 0 0 -157 c0 -87 8 -311 16 -498 13 -268 17 -729 21 -2177 l5
-1838 619 0 619 0 1 1298 c0 713 4 1317 8 1342 27 142 85 332 130 425 204 416
624 615 1133 536 76 -11 142 -21 148 -21 7 0 10 189 10 585 l0 584 -42 12
c-107 29 -227 34 -380 18z"/>
<path d="M28905 7759 c-681 -44 -1282 -329 -1667 -789 -289 -345 -467 -771
-535 -1277 -21 -162 -24 -601 -4 -743 88 -637 340 -1132 759 -1492 445 -382
1045 -579 1688 -554 793 30 1439 345 1853 902 231 312 368 665 438 1129 26
173 26 688 0 860 -71 472 -232 859 -491 1181 -85 105 -261 274 -366 348 -372
267 -774 403 -1286 436 -174 11 -211 11 -389 -1z m338 -894 c261 -46 494 -206
653 -450 262 -402 353 -1037 228 -1594 -116 -518 -418 -888 -819 -1003 -69
-20 -102 -23 -240 -22 -144 0 -169 3 -248 27 -452 139 -747 570 -838 1227 -16
112 -16 449 0 575 74 588 314 999 687 1171 66 31 190 66 269 77 73 10 229 6
308 -8z"/>
<path d="M33362 7760 c-513 -40 -935 -215 -1231 -510 -195 -194 -314 -415
-373 -694 -28 -133 -30 -372 -4 -490 87 -399 382 -718 891 -966 163 -79 212
-99 460 -190 160 -59 353 -149 440 -204 76 -49 168 -137 200 -191 70 -120 73
-300 7 -430 -37 -74 -70 -114 -135 -161 -308 -227 -1001 -158 -1643 164 l-121
61 -117 -451 c-65 -248 -120 -457 -123 -465 -9 -24 243 -133 457 -197 569
-171 1327 -177 1845 -15 557 174 919 522 1047 1009 27 102 31 135 35 300 8
265 -23 437 -113 625 -175 370 -580 674 -1179 885 -401 141 -608 257 -702 394
-75 109 -84 260 -23 375 129 242 489 328 960 229 146 -30 359 -105 499 -174
69 -34 127 -61 127 -61 1 1 54 196 118 432 64 237 119 435 121 441 13 40 -368
181 -631 234 -229 45 -585 67 -812 50z"/>
</g>
</svg>
