<!-- <svg class="container-logo"> 
  <use xlink:href="#logo-icarros">
    <svg viewBox="0 0 88 29" id="logo-icarros">
          <g>
            <g>
            <path d="M13.1 8.4L13.1 8.4C14.1 8.4 14.9 7.6 14.9 6.5L14.9 6.5C14.9 5.5 14.1 4.7 13.1 4.7L13.1 4.7C12 4.7 11.2 5.5 11.2 6.5 11.2 6.5 11.2 6.5 11.2 6.5 11.2 7.6 12 8.4 13.1 8.4"></path>
            <path d="M20.9 1.8C16.1-0.5 10.1 0.4 5.8 3.5 -0.6 8.1-1.8 17.4 2.8 23.8 5.6 27.5 10.5 29.1 15 29 18.5 28.9 22.5 27.8 25.3 25.5L24.8 24.9C21.7 27.5 14.8 28.7 10.5 27.2 6.2 25.7 3.5 22 2.5 17.7 1.7 13.8 2.4 9.9 4.7 6.6 8.3 1.7 14.4 0.2 19.7 3 25.6 5.9 28 14 23.8 19.4 22.2 21.3 19 23.1 16.6 21.4 15.2 20.4 15.3 18.6 15.3 17L15.5 10.1 10 10.1 10 11.3 12.3 11.3C12.2 13.7 12.1 18.4 12.1 18.5 12.1 20.5 12.8 23.7 17.9 23.2 22.8 22.8 27.3 19 28 14.3 28.8 8.9 25.7 4.1 20.9 1.8"></path>
            </g>
          </g>
        </svg>
    </use>
</svg> -->



<svg xmlns="http://www.w3.org/2000/svg"
     xmlns:xlink="http://www.w3.org/1999/xlink" xml:space="preserve">
      <g>
        <g style="fill:#fff">
          <path d="M13.1 8.4L13.1 8.4C14.1 8.4 14.9 7.6 14.9 6.5L14.9 6.5C14.9 5.5 14.1 4.7 13.1 4.7L13.1 4.7C12 4.7 11.2 5.5 11.2 6.5 11.2 6.5 11.2 6.5 11.2 6.5 11.2 7.6 12 8.4 13.1 8.4"></path>
          <path d="M20.9 1.8C16.1-0.5 10.1 0.4 5.8 3.5 -0.6 8.1-1.8 17.4 2.8 23.8 5.6 27.5 10.5 29.1 15 29 18.5 28.9 22.5 27.8 25.3 25.5L24.8 24.9C21.7 27.5 14.8 28.7 10.5 27.2 6.2 25.7 3.5 22 2.5 17.7 1.7 13.8 2.4 9.9 4.7 6.6 8.3 1.7 14.4 0.2 19.7 3 25.6 5.9 28 14 23.8 19.4 22.2 21.3 19 23.1 16.6 21.4 15.2 20.4 15.3 18.6 15.3 17L15.5 10.1 10 10.1 10 11.3 12.3 11.3C12.2 13.7 12.1 18.4 12.1 18.5 12.1 20.5 12.8 23.7 17.9 23.2 22.8 22.8 27.3 19 28 14.3 28.8 8.9 25.7 4.1 20.9 1.8"></path>
          <path d="M36.3 12C37.3 12 38 12.2 38.4 12.4L39 10C38.3 9.7 37.2 9.5 36.1 9.5 32 9.5 29.6 12.3 29.6 15.8 29.6 19.4 32 21.8 35.7 21.8 37.1 21.8 38.3 21.5 39 21.2L38.6 18.8C38 19.1 37.3 19.3 36.3 19.3 34.3 19.3 32.8 18 32.8 15.6 32.8 13.5 34.1 12 36.3 12"></path>
          <path d="M46.9 17.3C46.9 17.6 46.9 17.8 46.8 18 46.6 18.8 45.7 19.5 44.6 19.5 43.7 19.5 43 19 43 17.9 43 16.2 44.9 15.8 46.9 15.8L46.9 17.3ZM50 14.5C50 11.9 48.8 9.5 45 9.5 43.1 9.5 41.6 10 40.7 10.6L41.3 12.6C42.1 12.1 43.3 11.7 44.5 11.7 46.5 11.7 46.8 12.9 46.8 13.6L46.8 13.8C42.5 13.8 39.9 15.3 39.9 18.3 39.9 20.1 41.2 21.8 43.6 21.8 45.1 21.8 46.4 21.2 47.1 20.2L47.3 21.5 50.1 21.5C50 20.8 50 19.8 50 18.7L50 14.5Z"></path>
          <path d="M54.7 12L54.5 9.8 51.8 9.8C51.9 10.8 51.9 12 51.9 13.6L51.9 21.5 55.1 21.5 55.1 15.5C55.1 15.1 55.1 14.8 55.1 14.6 55.4 13.3 56.4 12.4 57.8 12.4 58.1 12.4 58.4 12.5 58.7 12.5L58.7 9.6C58.4 9.5 58.2 9.5 57.9 9.5 56.7 9.5 55.2 10.3 54.7 12"></path>
          <path d="M62.6 12L62.5 9.8 59.8 9.8C59.8 10.8 59.9 12 59.9 13.6L59.9 21.5 63 21.5 63 15.5C63 15.1 63 14.8 63.1 14.6 63.3 13.3 64.3 12.4 65.7 12.4 66.1 12.4 66.3 12.5 66.6 12.5L66.6 9.6C66.3 9.5 66.2 9.5 65.9 9.5 64.6 9.5 63.2 10.3 62.6 12"></path>
          <path d="M73.1 19.5L73.1 19.5C71.4 19.5 70.3 17.8 70.3 15.6 70.3 13.7 71.1 11.7 73.1 11.7 75.1 11.7 75.9 13.8 75.9 15.6 75.9 17.9 74.7 19.5 73.1 19.5M73.2 9.5C69.7 9.5 67.1 11.8 67.1 15.7 67.1 19.4 69.7 21.7 73 21.7L73.1 21.7C76.1 21.7 79.1 19.8 79.1 15.5 79.1 11.9 76.8 9.5 73.2 9.5"></path>
          <path d="M84.9 14.4C83.4 13.9 82.8 13.5 82.8 12.8 82.8 12.2 83.4 11.7 84.4 11.7 85.4 11.7 86.4 12.1 86.9 12.4L87.5 10.2C86.8 9.8 85.7 9.5 84.4 9.5 81.6 9.5 79.8 11.1 79.8 13.2 79.8 14.6 80.8 15.8 83.1 16.6 84.5 17.1 85 17.5 85 18.2 85 19 84.4 19.5 83.2 19.5 82.1 19.5 80.8 19 80.1 18.6L79.5 20.9C80.4 21.4 81.7 21.7 83.1 21.7 86.3 21.7 88 20.1 88 18 88 16.3 87 15.2 84.9 14.4"></path>
      </g>
        </g>
</svg>